<?xml version="1.0" encoding="UTF-8" standalone="no"?>
<svg
   fill="#000000"
   viewBox="0 0 32 32"
   width="512px"
   height="512px"
   version="1.1"
   id="svg15"
   sodipodi:docname="morse-icon.svg"
   inkscape:version="1.2 (dc2aedaf03, 2022-05-15)"
   inkscape:export-filename="morse-icon-512x512.png"
   inkscape:export-xdpi="96"
   inkscape:export-ydpi="96"
   xmlns:inkscape="http://www.inkscape.org/namespaces/inkscape"
   xmlns:sodipodi="http://sodipodi.sourceforge.net/DTD/sodipodi-0.dtd"
   xmlns="http://www.w3.org/2000/svg"
   xmlns:svg="http://www.w3.org/2000/svg">
  <defs
     id="defs19" />
  <sodipodi:namedview
     id="namedview17"
     pagecolor="#ffffff"
     bordercolor="#666666"
     borderopacity="1.0"
     inkscape:showpageshadow="2"
     inkscape:pageopacity="0.0"
     inkscape:pagecheckerboard="0"
     inkscape:deskcolor="#d1d1d1"
     showgrid="false"
     inkscape:zoom="1.9492188"
     inkscape:cx="397.33868"
     inkscape:cy="255.74349"
     inkscape:window-width="2560"
     inkscape:window-height="1373"
     inkscape:window-x="1911"
     inkscape:window-y="-9"
     inkscape:window-maximized="1"
     inkscape:current-layer="svg15" />
  <g
     class="layer"
     id="hexagon-shape"
     style="fill:#3e3e3e;fill-opacity:1;fill-rule:nonzero"
     transform="matrix(1.2842982,0,0,1.1810559,-4.320118,-2.5190341)">
    <title
       id="hexagon-title">Hexagon</title>
    <!-- Outer path is white so that a dark line still contrasts against a dark background -->
    <path
       style="fill:#ffffff;fill-opacity:1;fill-rule:nonzero;stroke:#ffffff;stroke-width:2.4;stroke-linecap:butt;stroke-linejoin:miter;stroke-opacity:1"
       d="m 15.816032,3.5634033 c -1.626094,0 -9.6095778,4.6431084 -10.4180317,6.0602823 -0.8084541,1.4171744 -0.8084541,10.7033894 0,12.1205654 0.8084539,1.417173 8.7919377,6.060282 10.4180317,6.060282 1.616908,0 9.600391,-4.643109 10.418032,-6.060282 0.808454,-1.417176 0.808454,-10.712715 0,-12.1205654 v 0 C 25.407235,8.2065117 17.43294,3.5634033 15.816032,3.5634033 Z"
       id="hexagon-shape-outer-path" />
    <!-- Inner path is the actual 'hexagonal border' around the icon/text -->
    <path
       style="fill:#000000;fill-opacity:0;fill-rule:nonzero;stroke:#3e3e3e;stroke-width:2;stroke-linecap:butt;stroke-linejoin:miter;stroke-opacity:1"
       d="m 15.816032,3.5634033 c -1.626094,0 -9.6095778,4.6431084 -10.4180317,6.0602823 -0.8084541,1.4171744 -0.8084541,10.7033894 0,12.1205654 0.8084539,1.417173 8.7919377,6.060282 10.4180317,6.060282 1.616908,0 9.600391,-4.643109 10.418032,-6.060282 0.808454,-1.417176 0.808454,-10.712715 0,-12.1205654 v 0 C 25.407235,8.2065117 17.43294,3.5634033 15.816032,3.5634033 Z"
       id="hexagon-shape-inner-path" />
  </g>
  <text
     xml:space="preserve"
     style="font-style:normal;font-variant:normal;font-weight:normal;font-stretch:normal;font-size:10.2574px;line-height:1.25;font-family:Roboto;-inkscape-font-specification:'Roboto, @wght=500';font-variant-ligatures:normal;font-variant-caps:normal;font-variant-numeric:normal;font-variant-east-asian:normal;font-variation-settings:'wght' 500;letter-spacing:0px;word-spacing:0px;fill:#3e3e3e;fill-opacity:1;stroke:none;stroke-width:0.256435"
     x="6.5599895"
     y="15.930885"
     id="text588"
     transform="scale(0.76872902,1.3008485)"><tspan
       sodipodi:role="line"
       id="tspan586"
       x="6.5599895"
       y="15.930885"
       style="font-style:normal;font-variant:normal;font-weight:normal;font-stretch:normal;font-size:10.2574px;font-family:Roboto;-inkscape-font-specification:'Roboto, @wght=500';font-variant-ligatures:normal;font-variant-caps:normal;font-variant-numeric:normal;font-variant-east-asian:normal;font-variation-settings:'wght' 500;stroke-width:0.256435">Morse</tspan></text>
  <text
     xml:space="preserve"
     style="font-size:7.68655px;line-height:1.25;font-family:Roboto;-inkscape-font-specification:'Roboto, Normal ';letter-spacing:0px;word-spacing:0px;stroke-width:0.0613608"
     x="11.549026"
     y="23.210129"
     id="text346"
     transform="scale(0.98177309,1.0185653)"><tspan
       sodipodi:role="line"
       id="tspan344"
       x="11.549026"
       y="23.210129"
       style="stroke-width:0.0613608">. . .</tspan></text>
  <text
     xml:space="preserve"
     style="font-size:7.48485px;line-height:1.25;font-family:Roboto;-inkscape-font-specification:'Roboto, Normal ';letter-spacing:0px;word-spacing:0px;stroke-width:0.0597507"
     x="12.254635"
     y="11.127289"
     id="text400"
     transform="scale(0.9560119,1.0460121)"><tspan
       sodipodi:role="line"
       id="tspan398"
       style="stroke-width:0.0597507"
       x="12.254635"
       y="11.127289">- - -</tspan></text>
  <path
     style="font-variation-settings:'wght' 500;fill:#3e3e3e;fill-opacity:1;stroke-width:0.186129"
     d="m 11.847451,9.2825646 v -0.272545 h 0.849854 0.849854 v 0.272545 0.2725456 h -0.849854 -0.849854 z"
     id="path816" />
  <path
     style="font-variation-settings:'wght' 500;fill:#3e3e3e;fill-opacity:1;stroke-width:0.186129"
     d="m 15.598529,9.2825646 v -0.272545 h 0.8352 0.835201 v 0.272545 0.2725456 h -0.835201 -0.8352 z"
     id="path818" />
  <path
     style="font-variation-settings:'wght' 500;fill:#3e3e3e;fill-opacity:1;stroke-width:0.186129"
     d="m 19.349606,9.2825646 v -0.272545 h 0.835201 0.835202 v 0.272545 0.2725456 h -0.835202 -0.835201 z"
     id="path820" />
  <path
     style="font-variation-settings:'wght' 500;fill:#3e3e3e;fill-opacity:1;stroke-width:0.191144"
     d="m 12.104052,23.627305 c -0.116981,-0.05481 -0.224397,-0.221282 -0.224561,-0.348025 -1.81e-4,-0.127422 0.07411,-0.294525 0.158026,-0.355501 0.04609,-0.0335 0.135274,-0.05229 0.248141,-0.05229 0.144175,0 0.193358,0.01499 0.270693,0.0825 0.185029,0.161527 0.184387,0.488511 -0.0013,0.63139 -0.10611,0.08167 -0.323158,0.101845 -0.451058,0.04192 z"
     id="path822" />
  <path
     style="font-variation-settings:'wght' 500;fill:#3e3e3e;fill-opacity:1;stroke-width:0.191144"
     d="m 15.941917,23.62335 c -0.182461,-0.09342 -0.254367,-0.35599 -0.15312,-0.559118 0.07195,-0.14435 0.162831,-0.19274 0.361984,-0.19274 0.151099,0 0.192649,0.01351 0.274315,0.08922 0.124853,0.115736 0.158996,0.345767 0.07526,0.507074 -0.09682,0.186528 -0.356625,0.258902 -0.558443,0.155567 z"
     id="path824" />
  <path
     style="font-variation-settings:'wght' 500;fill:#3e3e3e;fill-opacity:1;stroke-width:0.191144"
     d="m 19.802982,23.627022 c -0.142305,-0.06425 -0.197128,-0.165783 -0.197128,-0.365068 0,-0.153339 0.01163,-0.184493 0.105081,-0.281444 0.09336,-0.09686 0.12352,-0.109004 0.270427,-0.108898 0.299172,1.88e-4 0.468488,0.199047 0.41612,0.488653 -0.04466,0.246944 -0.342449,0.380567 -0.5945,0.266757 z"
     id="path826" />
</svg>
