<?xml version="1.0" encoding="UTF-8" standalone="no"?>
<svg
   fill="#000000"
   viewBox="0 0 32 32"
   width="512px"
   height="512px"
   version="1.1"
   id="utils-icon"
   sodipodi:docname="hinolugi-utils-icon.svg"
   inkscape:version="1.2 (dc2aedaf03, 2022-05-15)"
   inkscape:export-filename="hinolugi-utils-icon-96x96.png"
   inkscape:export-xdpi="18"
   inkscape:export-ydpi="18"
   xmlns:inkscape="http://www.inkscape.org/namespaces/inkscape"
   xmlns:sodipodi="http://sodipodi.sourceforge.net/DTD/sodipodi-0.dtd"
   xmlns="http://www.w3.org/2000/svg"
   xmlns:svg="http://www.w3.org/2000/svg">
  <defs
     id="defs19" />
  <sodipodi:namedview
     id="namedview17"
     pagecolor="#ffffff"
     bordercolor="#666666"
     borderopacity="1.0"
     inkscape:showpageshadow="2"
     inkscape:pageopacity="0.0"
     inkscape:pagecheckerboard="0"
     inkscape:deskcolor="#d1d1d1"
     showgrid="false"
     inkscape:zoom="1.9492188"
     inkscape:cx="222.14027"
     inkscape:cy="209.05811"
     inkscape:window-width="2560"
     inkscape:window-height="1373"
     inkscape:window-x="1911"
     inkscape:window-y="-9"
     inkscape:window-maximized="1"
     inkscape:current-layer="utils-icon" />
  <g
     class="layer"
     id="hexagon-shape"
     style="fill:#3e3e3e;fill-opacity:1;fill-rule:nonzero"
     transform="matrix(1.2897622,0,0,1.1819102,-4.4065353,-2.5164001)">
    <title
       id="hexagon-title">Hexagon</title>
    <!-- Outer path is white so that a dark line still contrasts against a dark background -->
    <path
       style="fill:#ffffff;fill-opacity:1;fill-rule:nonzero;stroke:#ffffff;stroke-width:2.4;stroke-linecap:butt;stroke-linejoin:miter;stroke-opacity:1"
       d="m 15.816032,3.5634033 c -1.626094,0 -9.6095778,4.6431084 -10.4180317,6.0602823 -0.8084541,1.4171744 -0.8084541,10.7033894 0,12.1205654 0.8084539,1.417173 8.7919377,6.060282 10.4180317,6.060282 1.616908,0 9.600391,-4.643109 10.418032,-6.060282 0.808454,-1.417176 0.808454,-10.712715 0,-12.1205654 v 0 C 25.407235,8.2065117 17.43294,3.5634033 15.816032,3.5634033 Z"
       id="hexagon-shape-outer-path" />
    <!-- Inner path is the actual 'hexagonal border' around the icon/text -->
    <path
       style="fill:#000000;fill-opacity:0;fill-rule:nonzero;stroke:#3e3e3e;stroke-width:2;stroke-linecap:butt;stroke-linejoin:miter;stroke-opacity:1"
       d="m 15.816032,3.5634033 c -1.626094,0 -9.6095778,4.6431084 -10.4180317,6.0602823 -0.8084541,1.4171744 -0.8084541,10.7033894 0,12.1205654 0.8084539,1.417173 8.7919377,6.060282 10.4180317,6.060282 1.616908,0 9.600391,-4.643109 10.418032,-6.060282 0.808454,-1.417176 0.808454,-10.712715 0,-12.1205654 v 0 C 25.407235,8.2065117 17.43294,3.5634033 15.816032,3.5634033 Z"
       id="hexagon-shape-inner-path" />
  </g>
  <g
     class="layer"
     id="icon-shape"
     transform="matrix(0.03340177,0,0,0.03317221,7.4623786,7.3729435)"
     style="fill:#3e3e3e;fill-opacity:1">
    <title
       id="utils-title">Utils</title>
    <path
       d="m 331.8,224.1 c 28.29,0 54.88,10.99 74.86,30.97 l 19.59,19.59 c 40.01,-17.74 71.25,-53.3 81.62,-96.65 5.725,-23.92 5.34,-47.08 0.2148,-68.4 -2.613,-10.88 -16.43,-14.51 -24.34,-6.604 l -68.9,68.9 h -75.6 V 97.2 l 68.9,-68.9 c 7.912,-7.912 4.275,-21.73 -6.604,-24.34 -21.32,-5.125 -44.48,-5.51 -68.4,0.2148 -55.3,13.23 -98.39,60.22 -107.2,116.4 C 224.5,128.9 224.2,137 224.3,145 l 82.78,82.86 c 8.12,-2.76 16.42,-3.76 24.72,-3.76 z M 384,278.6 C 360.84,255.44 326.43,251.03 298.61,264.7 L 191.1,158 V 95.99 L 64,0 0,63.1 l 96,127.1 62.04,0.008 106.7,106.6 c -13.67,27.82 -9.251,62.23 13.91,85.39 l 117,117.1 c 14.62,14.5 38.21,14.5 52.71,-0.002 l 52.75,-52.75 c 14.5,-14.5 14.5,-38.08 -0.002,-52.71 z M 227.9,307 168.7,247.9 19.8,396.8 c -26.37,26.37 -26.37,69.08 0,95.45 13.16,13.15 30.41,19.75 47.7,19.75 17.29,0 34.54,-6.592 47.72,-19.78 l 119.1,-119.1 C 225.5,352.3 222.6,329.4 227.9,307 Z M 64,472 c -13.25,0 -24,-10.75 -24,-24 0,-13.26 10.75,-24 24,-24 13.25,0 24,10.7 24,24 0,13.3 -10.75,24 -24,24 z"
       id="utils-icon-path"
       style="fill:#3e3e3e;fill-opacity:1" />
  </g>
</svg>
