<?xml version="1.0" encoding="UTF-8" standalone="no"?>
<svg xmlns="http://www.w3.org/2000/svg" xmlns:svg="http://www.w3.org/2000/svg">
  <symbol id="logo" viewBox="0 0 32 32">
    <g class="layer" id="hexagon-shape" style="fill:#ffffff;fill-opacity:1;fill-rule:nonzero" transform="matrix(1.2345201,0,0,1.1905221,-3.340441,-2.6995663)">
      <title id="hexagon-title">Hexagon</title>
      <!-- Outer path is white so that a dark line still contrasts against a dark background -->
      <path id="hexagon-shape-outer-path" style="fill:var(--logo-background-color);stroke:var(--logo-border-color);fill-opacity:1;fill-rule:nonzero;stroke-width:2.4;stroke-linecap:butt;stroke-linejoin:miter;stroke-opacity:1"
            d="m 15.816032,3.5634033 c -1.626094,0 -9.6095778,4.6431084 -10.4180317,6.0602823 -0.8084541,1.4171744 -0.8084541,10.7033894 0,12.1205654 0.8084539,1.417173 8.7919377,6.060282 10.4180317,6.060282 1.616908,0 9.600391,-4.643109 10.418032,-6.060282 0.808454,-1.417176 0.808454,-10.712715 0,-12.1205654 v 0 C 25.407235,8.2065117 17.43294,3.5634033 15.816032,3.5634033 Z" />
      <!-- Inner path is the actual 'hexagonal border' around the icon/text -->
      <path id="hexagon-shape-inner-path" style="stroke:var(--logo-border-color);fill-opacity:0;fill-rule:nonzero;stroke-width:2;stroke-linecap:butt;stroke-linejoin:miter;stroke-opacity:1"
         d="m 15.816032,3.5634033 c -1.626094,0 -9.6095778,4.6431084 -10.4180317,6.0602823 -0.8084541,1.4171744 -0.8084541,10.7033894 0,12.1205654 0.8084539,1.417173 8.7919377,6.060282 10.4180317,6.060282 1.616908,0 9.600391,-4.643109 10.418032,-6.060282 0.808454,-1.417176 0.808454,-10.712715 0,-12.1205654 v 0 C 25.407235,8.2065117 17.43294,3.5634033 15.816032,3.5634033 Z" />
    </g>
    <text id="text588-9" xml:space="preserve" style="fill:var(--logo-text-color);font-style:normal;font-variant:normal;font-weight:normal;font-stretch:normal;font-size:12.0564px;line-height:1.25;font-family:Roboto;-inkscape-font-specification:'Roboto, @wght=500';font-variant-ligatures:normal;font-variant-caps:normal;font-variant-numeric:normal;font-variant-east-asian:normal;font-variation-settings:'wght' 500;letter-spacing:0px;word-spacing:0px;fill-opacity:1;stroke:none;stroke-width:0.301407"
          x="7.3373518" y="-20.652414" transform="matrix(0.01605103,1.1369631,-0.87936077,0.01241433,0,0)">
      <tspan id="tspan586-2" x="7.3373518" y="-20.652414" style="font-style:normal;font-variant:normal;font-weight:normal;font-stretch:normal;font-size:12.0564px;font-family:Roboto;-inkscape-font-specification:'Roboto, @wght=500';font-variant-ligatures:normal;font-variant-caps:normal;font-variant-numeric:normal;font-variant-east-asian:normal;font-variation-settings:'wght' 500;stroke-width:0.301407">Do</tspan>
    </text>
    <text id="text588" xml:space="preserve" style="fill:var(--logo-text-color);font-style:normal;font-variant:normal;font-weight:normal;font-stretch:normal;font-size:11.2751px;line-height:1.25;font-family:Roboto;-inkscape-font-specification:'Roboto, @wght=500';font-variant-ligatures:normal;font-variant-caps:normal;font-variant-numeric:normal;font-variant-east-asian:normal;font-variation-settings:'wght' 500;letter-spacing:0px;word-spacing:0px;fill-opacity:1;stroke:none;stroke-width:0.281874"
          x="4.4229908" y="21.435429" transform="matrix(1.0544158,-0.0190094,0.01184318,0.94817891,0,0)">
      <tspan id="tspan586" x="4.4229908" y="21.435429" style="font-style:normal;font-variant:normal;font-weight:normal;font-stretch:normal;font-size:11.2751px;font-family:Roboto;-inkscape-font-specification:'Roboto, @wght=500';font-variant-ligatures:normal;font-variant-caps:normal;font-variant-numeric:normal;font-variant-east-asian:normal;font-variation-settings:'wght' 500;stroke-width:0.281874">To</tspan>
    </text>
  </symbol>  
</svg>
