<?xml version="1.0" encoding="UTF-8" standalone="no"?>
<svg
   fill="#000000"
   viewBox="0 0 32 32"
   width="512px"
   height="512px"
   version="1.1"
   id="svg15"
   sodipodi:docname="timezone-converter-icon.svg"
   inkscape:version="1.2 (dc2aedaf03, 2022-05-15)"
   inkscape:export-filename="timezone-converter-icon-96x96.png"
   inkscape:export-xdpi="18"
   inkscape:export-ydpi="18"
   xmlns:inkscape="http://www.inkscape.org/namespaces/inkscape"
   xmlns:sodipodi="http://sodipodi.sourceforge.net/DTD/sodipodi-0.dtd"
   xmlns="http://www.w3.org/2000/svg"
   xmlns:svg="http://www.w3.org/2000/svg">
  <defs
     id="defs19" />
  <sodipodi:namedview
     id="namedview17"
     pagecolor="#ffffff"
     bordercolor="#666666"
     borderopacity="1.0"
     inkscape:showpageshadow="2"
     inkscape:pageopacity="0.0"
     inkscape:pagecheckerboard="0"
     inkscape:deskcolor="#d1d1d1"
     showgrid="false"
     inkscape:zoom="1.3783058"
     inkscape:cx="176.66616"
     inkscape:cy="125.15365"
     inkscape:window-width="1920"
     inkscape:window-height="1013"
     inkscape:window-x="-9"
     inkscape:window-y="-9"
     inkscape:window-maximized="1"
     inkscape:current-layer="svg15" />
  <g
     class="layer"
     id="hexagon-shape"
     style="fill:#3e3e3e;fill-opacity:1;fill-rule:nonzero"
     transform="matrix(1.2828919,0,0,1.1846443,-4.2177144,-2.4951547)">
    <title
       id="hexagon-title">Hexagon</title>
    <!-- Outer path is white so that a dark line still contrasts against a dark background -->
    <path
       style="fill:#ffffff;fill-opacity:1;fill-rule:nonzero;stroke:#ffffff;stroke-width:2.4;stroke-linecap:butt;stroke-linejoin:miter;stroke-opacity:1"
       d="m 15.816032,3.5634033 c -1.626094,0 -9.6095778,4.6431084 -10.4180317,6.0602823 -0.8084541,1.4171744 -0.8084541,10.7033894 0,12.1205654 0.8084539,1.417173 8.7919377,6.060282 10.4180317,6.060282 1.616908,0 9.600391,-4.643109 10.418032,-6.060282 0.808454,-1.417176 0.808454,-10.712715 0,-12.1205654 v 0 C 25.407235,8.2065117 17.43294,3.5634033 15.816032,3.5634033 Z"
       id="hexagon-shape-outer-path" />
    <!-- Inner path is the actual 'hexagonal border' around the icon/text -->
    <path
       style="fill:#000000;fill-opacity:0;fill-rule:nonzero;stroke:#3e3e3e;stroke-width:2;stroke-linecap:butt;stroke-linejoin:miter;stroke-opacity:1"
       d="m 15.816032,3.5634033 c -1.626094,0 -9.6095778,4.6431084 -10.4180317,6.0602823 -0.8084541,1.4171744 -0.8084541,10.7033894 0,12.1205654 0.8084539,1.417173 8.7919377,6.060282 10.4180317,6.060282 1.616908,0 9.600391,-4.643109 10.418032,-6.060282 0.808454,-1.417176 0.808454,-10.712715 0,-12.1205654 v 0 C 25.407235,8.2065117 17.43294,3.5634033 15.816032,3.5634033 Z"
       id="hexagon-shape-inner-path" />
  </g>
  <path
     d="m 8.472441,10.174191 c 0,-0.2257205 0.184945,-0.4073155 0.41483,-0.4073155 0.229885,0 0.41483,0.181595 0.41483,0.4073155 v 2.090884 l 1.474377,0.963979 c 0.19013,0.12559 0.241984,0.378464 0.100251,0.56515 -0.11235,0.186686 -0.369891,0.237601 -0.560022,0.09844 L 8.657386,12.806465 C 8.54158,12.745365 8.472441,12.618082 8.472441,12.467036 Z m 0.41483,-2.0365765 c 2.444043,0 4.424857,1.9449305 4.424857,4.3446955 0,2.399765 -1.980814,4.344696 -4.424857,4.344696 -2.4440412,0 -4.4248559,-1.944931 -4.4248559,-4.344696 0,-2.399765 1.9808147,-4.3446955 4.4248559,-4.3446955 z M 5.2920757,12.48231 c 0,1.950022 1.6091959,3.530065 3.5951953,3.530065 1.986,0 3.595197,-1.580043 3.595197,-3.530065 0,-1.950021 -1.609197,-3.5300655 -3.595197,-3.5300655 -1.9859994,0 -3.5951953,1.5800445 -3.5951953,3.5300655 z"
     id="clock-icon-1"
     style="fill:#3e3e3e;stroke:#3e3e3e;stroke-width:0.0171273" />
  <path
     d="m 18.359208,17.508647 -1.513338,0.504908 c -0.09833,0.03368 -0.197361,0.02221 -0.278016,-0.02245 -0.08065,-0.04466 -0.142589,-0.122665 -0.166914,-0.223563 -0.04885,-0.201902 0.07119,-0.418694 0.26824,-0.484437 l 0.652674,-0.217368 -2.886859,-1.598498 0.161714,0.668374 c 0.04885,0.201902 -0.07119,0.418694 -0.268241,0.484437 -0.09893,0.03293 -0.197969,0.02145 -0.278624,-0.02321 -0.08065,-0.04466 -0.14259,-0.122664 -0.166915,-0.223562 l -0.375171,-1.550604 c -0.04885,-0.201902 0.07119,-0.418694 0.26824,-0.484438 l 1.513339,-0.504906 c 0.197048,-0.06574 0.396227,0.04454 0.445077,0.246446 0.04885,0.201902 -0.07119,0.418694 -0.26824,0.484437 l -0.65179,0.217855 2.886859,1.598498 -0.161713,-0.668375 c -0.04885,-0.201902 0.07119,-0.418693 0.26824,-0.484437 0.197049,-0.06574 0.396228,0.04454 0.445077,0.246447 l 0.375171,1.550602 c 0.04799,0.201842 -0.07176,0.418099 -0.268821,0.483836 z"
     id="arrows-left-right"
     style="fill:#3e3e3e;stroke:#3e3e3e;stroke-width:0.000200899" />
  <path
     d="m 23.639315,21.920201 c 0,0.22572 -0.184944,0.407315 -0.414829,0.407315 -0.229885,0 -0.41483,-0.181595 -0.41483,-0.407315 v -2.090885 l -1.474377,-0.963978 c -0.19013,-0.12559 -0.241983,-0.378465 -0.100251,-0.56515 0.11235,-0.186687 0.369891,-0.237602 0.560022,-0.09844 l 1.659321,1.086179 c 0.115805,0.0611 0.184944,0.188383 0.184944,0.339428 z m -0.414829,2.036576 c -2.444043,0 -4.424857,-1.94493 -4.424857,-4.344696 0,-2.399764 1.980814,-4.344695 4.424857,-4.344695 2.44404,0 4.424856,1.944931 4.424856,4.344695 0,2.399766 -1.980815,4.344696 -4.424856,4.344696 z m 3.595195,-4.344696 c 0,-1.950022 -1.609197,-3.530065 -3.595195,-3.530065 -1.986,0 -3.595197,1.580043 -3.595197,3.530065 0,1.950022 1.609198,3.530066 3.595197,3.530066 1.985998,0 3.595195,-1.580044 3.595195,-3.530066 z"
     id="clock-icon-2"
     style="fill:#3e3e3e;stroke:#3e3e3e;stroke-width:0.0171273" />
</svg>
